PathFileType	4	(X/Y/Z)	/Users/itak/Documents/Research/Walk-IL/dataset/trc/00285_00010.trc
DataRate	CameraRate	NumFrames	NumMarkers	Units	OrigDataRate	OrigDataStartFrame	OrigNumFrames
100.000000	100.000000	4	54	mm	100.000000	226	604
Frame#	Time	RPSI			LPSI			L3			STRN			T10			C7			CLAV			RBAK			LBAK			LSHO			LUPA			LAEL			LAOL			LWTS			LWPS			LFRA			LIFD			LHPS			LHTS			RSHO			RUPA			RAEL			RAOL			RWTS			RWPS			RFRA			RHTS			RHPS			RBHD			LFHD			RFHD			LBHD			LHIP			RASI			LASI			LKNE			LTHI			LANK			LTIP			LTOE			LMT1			LMT5			LHEE			RKNE			RTHI			RANK			RTIP			RTOE			RMT1			RMT5			RHEE			RIFD			RHIP			*53			
		X1	Y1	Z1	X2	Y2	Z2	X3	Y3	Z3	X4	Y4	Z4	X5	Y5	Z5	X6	Y6	Z6	X7	Y7	Z7	X8	Y8	Z8	X9	Y9	Z9	X10	Y10	Z10	X11	Y11	Z11	X12	Y12	Z12	X13	Y13	Z13	X14	Y14	Z14	X15	Y15	Z15	X16	Y16	Z16	X17	Y17	Z17	X18	Y18	Z18	X19	Y19	Z19	X20	Y20	Z20	X21	Y21	Z21	X22	Y22	Z22	X23	Y23	Z23	X24	Y24	Z24	X25	Y25	Z25	X26	Y26	Z26	X27	Y27	Z27	X28	Y28	Z28	X29	Y29	Z29	X30	Y30	Z30	X31	Y31	Z31	X32	Y32	Z32	X33	Y33	Z33	X34	Y34	Z34	X35	Y35	Z35	X36	Y36	Z36	X37	Y37	Z37	X38	Y38	Z38	X39	Y39	Z39	X40	Y40	Z40	X41	Y41	Z41	X42	Y42	Z42	X43	Y43	Z43	X44	Y44	Z44	X45	Y45	Z45	X46	Y46	Z46	X47	Y47	Z47	X48	Y48	Z48	X49	Y49	Z49	X50	Y50	Z50	X51	Y51	Z51	X52	Y52	Z52	X53	Y53	Z53	X54	Y54	Z54	

227	2.26	977.5390014648438	957.4324340820312	-278.3752136230469	854.262451171875	943.761474609375	-153.07958984375	893.098876953125	1023.743469238281	-202.5447235107422	708.6775512695312	1193.995361328125	-379.415771484375	884.9432983398438	1141.867553710938	-177.9015808105469	819.8743286132812	1381.813842773438	-195.2912139892578	738.1107788085938	1294.652709960938	-325.6013793945312	922.0609130859375	1254.978149414062	-203.4282379150391	752.7286987304688	1337.093872070312	-117.0442428588867	658.9862060546875	1333.862426757812	-157.0175018310547	615.11572265625	1211.67333984375	-107.5203857421875	583.1184692382812	1019.856323242188	-146.3444519042969	656.8351440429688	983.1851806640625	-115.8612289428711	562.7294921875	941.893798828125	-359.4822082519531	510.9671630859375	894.6361694335938	-333.4746704101562	554.3779907226562	954.3027954101562	-215.2432861328125	540.80322265625	839.0211791992188	-514.115966796875	506.32470703125	846.8521118164062	-407.7711486816406	523.0241088867188	899.28564453125	-443.9046630859375	906.7285766601562	1373.883056640625	-344.5891723632812	973.0889892578125	1330.513549804688	-373.3759765625	1089.672241210938	1094.786865234375	-340.1822204589844	1027.723876953125	1081.366577148438	-269.0924682617188	1065.286499023438	842.9389038085938	-356.9241943359375	1148.665283203125	866.0985717773438	-358.6370239257812	1109.82958984375	1027.368530273438	-355.5198974609375	1074.61279296875	756.3162841796875	-397.5603637695312	1161.973999023438	753.4474487304688	-362.7455139160156	848.848876953125	1544.996459960938	-276.9207458496094	636.1837768554688	1561.487548828125	-284.2383728027344	693.7893676757812	1569.47607421875	-357.05126953125	761.0454711914062	1522.963500976562	-162.0404663085938	740.98583984375	887.4851684570312	-135.0108337402344	839.623291015625	922.052490234375	-449.36865234375	669.1094970703125	894.082763671875	-261.6834411621094	822.3311767578125	438.9649353027344	-190.9925994873047	769.4573364257812	573.8304443359375	-176.3639373779297	992.166015625	43.24707412719727	-80.30011749267578	904.2196655273438	228.0323181152344	-135.7144165039062	1006.688171386719	26.19724273681641	-296.1227722167969	1058.441650390625	19.3939380645752	-231.3844146728516	954.6204223632812	36.60964584350586	-198.7347717285156	1060.206665039062	41.71925735473633	-47.62882995605469	839.8439331054688	480.3919372558594	-550.4166259765625	913.0355224609375	728.5745849609375	-510.4482116699219	778.2694091796875	42.98206329345703	-644.18798828125	793.7930297851562	376.2607116699219	-589.291748046875	556.1976928710938	132.9041595458984	-673.0735473632812	586.7970581054688	100.6398239135742	-620.337646484375	649.334228515625	81.15380096435547	-719.3242797851562	803.29345703125	31.02553939819336	-586.0811767578125	1080.339721679688	677.5994262695312	-372.2842712402344	975.0675659179688	918.1989135742188	-425.4997253417969	nan	nan	nan	
228	2.27	971.6787719726562	955.0681762695312	-287.3855590820312	848.8865966796875	941.6392211914062	-161.4870758056641	887.608154296875	1021.183471679688	-211.3394317626953	702.467529296875	1191.428833007812	-387.1406860351562	880.0851440429688	1139.6298828125	-186.7611083984375	815.1213989257812	1379.65087890625	-204.1256866455078	732.1253662109375	1292.2255859375	-333.8159484863281	917.0770874023438	1252.73974609375	-212.9016571044922	748.5963134765625	1335.012329101562	-125.2606353759766	654.7011108398438	1331.848388671875	-163.8973083496094	611.3399658203125	1209.41015625	-114.2500457763672	579.4349975585938	1017.877380371094	-152.2486267089844	653.4285888671875	980.8660278320312	-122.7024917602539	555.9959106445312	942.5726318359375	-365.4891052246094	504.3161010742188	895.1487426757812	-339.5695190429688	549.5151977539062	953.2275390625	-221.1051483154297	531.4805908203125	842.1763916015625	-521.373291015625	497.8492431640625	848.597412109375	-414.5409545898438	514.8756103515625	901.4278564453125	-449.94775390625	900.7100830078125	1371.3916015625	-354.1501159667969	966.9013671875	1328.099365234375	-383.25439453125	1084.634399414062	1092.982788085938	-350.0313415527344	1023.290588378906	1079.351806640625	-278.6905517578125	1062.129516601562	840.7061157226562	-365.8465576171875	1145.447021484375	864.8985595703125	-367.8786010742188	1105.226928710938	1025.742919921875	-365.3173828125	1071.640502929688	754.5762329101562	-405.6498718261719	1159.26513671875	752.4277954101562	-372.2206726074219	843.1741333007812	1543.056030273438	-285.9788208007812	630.312255859375	1559.213623046875	-290.8110961914062	687.146728515625	1567.429931640625	-364.1772766113281	756.8043823242188	1520.69482421875	-170.0728302001953	735.678955078125	885.3977661132812	-142.7695617675781	832.7442626953125	919.807373046875	-457.7865905761719	662.3661499023438	891.7649536132812	-268.5433959960938	819.4916381835938	437.8029479980469	-195.0597381591797	765.5023193359375	572.4072875976562	-181.3375091552734	993.0626831054688	44.16446304321289	-80.70353698730469	903.3010864257812	228.1537017822266	-137.6632385253906	1006.501586914062	26.0972785949707	-296.2674255371094	1058.507080078125	19.57871055603027	-231.8781890869141	954.8224487304688	36.74858474731445	-198.7218627929688	1061.177001953125	43.90855026245117	-48.24440765380859	827.7654418945312	479.8646240234375	-558.9442138671875	904.2509155273438	727.2516479492188	-519.8931274414062	760.6896362304688	41.28886795043945	-652.3605346679688	780.9954223632812	374.5872497558594	-596.622314453125	545.6057739257812	127.9593276977539	-675.0554809570312	577.0150756835938	96.45010375976562	-622.5413208007812	638.7442016601562	77.22669219970703	-721.9288330078125	787.2758178710938	30.12395477294922	-593.8193359375	1077.702514648438	676.03466796875	-380.58837890625	968.2963256835938	915.8444213867188	-434.3155517578125	nan	nan	nan	
229	2.28	965.4468383789062	953.0074462890625	-296.3302001953125	843.1189575195312	939.7080688476562	-169.8395080566406	881.6680297851562	1018.7216796875	-220.2623443603516	696.1708374023438	1189.07958984375	-395.0330505371094	874.9715576171875	1137.47265625	-195.6858215332031	810.3020629882812	1377.628295898438	-213.0183868408203	726.0767211914062	1289.989379882812	-342.1387023925781	911.9744873046875	1250.567749023438	-222.4185943603516	744.3223266601562	1333.094970703125	-133.6038055419922	650.2623291015625	1329.99365234375	-171.0793151855469	607.4718017578125	1207.370483398438	-121.0695648193359	575.7694091796875	1016.017272949219	-158.0652618408203	650.1018676757812	978.8120727539062	-129.5445251464844	549.1544189453125	942.6621704101562	-371.1853332519531	497.8268127441406	895.0245361328125	-345.1343078613281	544.638916015625	951.9990234375	-226.7218933105469	522.0260009765625	844.1238403320312	-527.8306274414062	489.2517700195312	849.51171875	-420.5787963867188	506.5892028808594	902.5712280273438	-455.4374389648438	894.6693725585938	1368.999633789062	-363.7440490722656	960.6715698242188	1325.705810546875	-393.1825256347656	1079.279663085938	1091.009887695312	-360.1161499023438	1018.465942382812	1077.175415039062	-288.6007995605469	1058.676513671875	838.36865234375	-375.1272277832031	1141.931884765625	863.6005859375	-377.4280395507812	1100.312133789062	1023.999145507812	-375.3981628417969	1068.370361328125	752.7372436523438	-414.0464477539062	1156.261840820312	751.307373046875	-381.988037109375	837.3674926757812	1541.369873046875	-295.1027526855469	624.3421020507812	1557.03759765625	-297.3532409667969	680.3480834960938	1565.530639648438	-371.2854614257812	752.5147705078125	1518.608520507812	-178.1562042236328	729.9904174804688	883.3668212890625	-150.5576171875	825.6734619140625	917.6835327148438	-466.2089538574219	655.5079345703125	889.6399536132812	-275.5625305175781	816.3604736328125	436.6233215332031	-199.6773834228516	761.2413330078125	570.9691772460938	-186.7250366210938	993.7855224609375	45.33874893188477	-81.20484161376953	902.2116088867188	228.3271789550781	-139.9660491943359	1006.334167480469	26.00045967102051	-296.4285278320312	1058.519653320312	19.77181053161621	-232.3783874511719	954.968017578125	36.91594696044922	-198.8129577636719	1061.97265625	46.46638488769531	-48.91270065307617	815.2345581054688	479.7828063964844	-567.436279296875	895.0582885742188	726.224365234375	-529.1043090820312	744.3052978515625	39.66202163696289	-659.9407958984375	768.0538940429688	373.0741577148438	-603.7499389648438	536.2046508789062	121.410400390625	-675.5006713867188	568.9097290039062	91.11833953857422	-623.3235473632812	629.3594360351562	72.19509887695312	-723.3488159179688	772.4567260742188	29.26653671264648	-600.98681640625	1074.767333984375	674.3707275390625	-389.1989440917969	961.3352661132812	913.7671508789062	-443.0429382324219	nan	nan	nan	
230	2.29	958.843017578125	951.339599609375	-305.2065734863281	836.96728515625	937.984619140625	-178.1268157958984	875.31201171875	1016.415649414062	-229.2869720458984	689.7684326171875	1186.9970703125	-403.0640258789062	869.5955200195312	1135.451416015625	-204.6594543457031	805.4044799804688	1375.803833007812	-221.9581909179688	719.95068359375	1287.994506835938	-350.5452880859375	906.75244140625	1248.506103515625	-231.9616546630859	739.8976440429688	1331.400268554688	-142.0493774414062	645.6387939453125	1328.354125976562	-178.5487518310547	603.4925537109375	1205.600341796875	-127.9535522460938	572.0885620117188	1014.315490722656	-163.7698822021484	646.8563842773438	977.0689086914062	-136.3915405273438	542.20458984375	942.1592407226562	-376.5808715820312	491.5677490234375	894.2505493164062	-350.1479187011719	539.7975463867188	950.6187744140625	-232.0802917480469	512.4512939453125	844.8240356445312	-533.5072631835938	480.6466979980469	849.5501098632812	-425.8795166015625	498.1803894042969	902.6900024414062	-460.3842468261719	888.595458984375	1366.752563476562	-373.3628845214844	954.3911743164062	1323.370361328125	-403.1716918945312	1073.576538085938	1088.880859375	-370.4664001464844	1013.2158203125	1074.849243164062	-298.8182373046875	1054.890869140625	835.941650390625	-384.7511596679688	1138.082153320312	862.2254028320312	-387.2921142578125	1095.045776367188	1022.148803710938	-385.7835998535156	1064.765502929688	750.8209838867188	-422.7577514648438	1152.92578125	750.1083984375	-392.0596313476562	831.4323120117188	1539.976928710938	-304.3002319335938	618.2925415039062	1555.0283203125	-303.8487243652344	673.3989868164062	1563.839965820312	-378.3750305175781	748.1805419921875	1516.749633789062	-186.2983856201172	723.9473266601562	881.3959350585938	-158.3626251220703	818.4078979492188	915.759765625	-474.6187438964844	648.5843505859375	887.7200927734375	-282.7382507324219	812.890380859375	435.4353942871094	-204.8745880126953	756.670654296875	569.5359497070312	-192.5640411376953	994.26953125	46.82542037963867	-81.80899047851562	900.87451171875	228.5759887695312	-142.6604309082031	1006.183288574219	25.91206359863281	-296.6027526855469	1058.48193359375	20.01071357727051	-232.8766632080078	955.0322875976562	37.11152267456055	-199.0232849121094	1062.530639648438	49.45226287841797	-49.64316558837891	802.3773193359375	480.1645812988281	-575.833984375	885.5074462890625	725.5078735351562	-538.0414428710938	729.8336181640625	38.18796539306641	-666.70166015625	755.1124877929688	371.8561401367188	-610.6749267578125	527.9681396484375	113.700927734375	-674.7066040039062	562.3840942382812	85.10957336425781	-622.9595336914062	621.0980834960938	66.38690948486328	-723.830322265625	759.5435180664062	28.54289817810059	-607.3599243164062	1071.496948242188	672.6284790039062	-398.1233825683594	954.1765747070312	912.0803833007812	-451.710693359375	nan	nan	nan	
